<svg xmlns="http://www.w3.org/2000/svg" xmlns:xlink="http://www.w3.org/1999/xlink" version="1" width="658.595" height="597.118"><defs><linearGradient id="r"><stop offset="0" stop-color="#ff0"/><stop offset="1" stop-color="#a8650a" stop-opacity="0"/></linearGradient><linearGradient id="q"><stop offset="0" stop-color="#ff0" stop-opacity=".845"/><stop offset="1" stop-color="#a8650a" stop-opacity="0"/></linearGradient><linearGradient id="p"><stop offset="0"/><stop offset="1" stop-opacity="0"/></linearGradient><linearGradient id="o"><stop offset="0" stop-color="#00f"/><stop offset="1" stop-opacity="0"/></linearGradient><linearGradient id="n"><stop offset="0" stop-color="#3700d0"/><stop offset="1" stop-opacity="0"/></linearGradient><linearGradient id="k"><stop offset="0" stop-color="red" stop-opacity=".546"/><stop offset="1" stop-color="#ff0067" stop-opacity=".423"/></linearGradient><linearGradient id="j"><stop offset="0" stop-color="#4700aa"/><stop offset="1" stop-color="#80a" stop-opacity="0"/></linearGradient><linearGradient id="m"><stop offset="0" stop-color="#cd00ff"/><stop offset="1" stop-color="#f0f" stop-opacity="0"/></linearGradient><linearGradient id="l"><stop offset="0" stop-color="#ff0"/><stop offset="1" stop-color="#a8650a" stop-opacity=".454"/></linearGradient><linearGradient id="i"><stop offset="0" stop-color="#80650a"/><stop offset="1" stop-color="#80650a" stop-opacity="0"/></linearGradient><linearGradient id="h"><stop offset="0" stop-color="#062e05"/><stop offset="1" stop-color="#062e05" stop-opacity="0"/></linearGradient><linearGradient id="g"><stop offset="0"/><stop offset="1" stop-opacity="0"/></linearGradient><linearGradient id="f"><stop offset="0" stop-color="#ea009b"/><stop offset="1" stop-color="#d1f9d0" stop-opacity="0"/></linearGradient><linearGradient id="e"><stop offset="0" stop-color="#80a"/><stop offset="1" stop-color="#80a" stop-opacity="0"/></linearGradient><linearGradient id="d"><stop offset="0" stop-color="#24d81f"/><stop offset="1" stop-color="#24d81f" stop-opacity="0"/></linearGradient><linearGradient id="c"><stop offset="0" stop-color="#4200d2"/><stop offset="1" stop-color="#d42aff" stop-opacity="0"/></linearGradient><linearGradient id="b"><stop offset="0" stop-color="#0f0"/><stop offset="1" stop-color="#0f0" stop-opacity="0"/></linearGradient><linearGradient id="a"><stop offset="0"/><stop offset="1" stop-opacity="0"/></linearGradient><linearGradient x1="305.082" y1="525.774" x2="211.425" y2="392.584" id="C" xlink:href="#j" gradientUnits="userSpaceOnUse" gradientTransform="rotate(3.546 1744.91 387.439)"/><linearGradient x1="178.967" y1="286.362" x2="423.566" y2="433.986" id="B" xlink:href="#h" gradientUnits="userSpaceOnUse" gradientTransform="rotate(3.546 1744.91 387.439)"/><radialGradient cx="265.337" cy="112.915" r="387.202" fx="265.337" fy="112.915" id="z" xlink:href="#c" gradientUnits="userSpaceOnUse" gradientTransform="matrix(-.75033 .65079 -.05002 -.05767 698.66 31)"/><radialGradient cx="532.465" cy="285.888" r="387.202" fx="550.084" fy="591.353" id="x" xlink:href="#c" gradientUnits="userSpaceOnUse" gradientTransform="matrix(-.52798 .5262 -.0539 -.05408 590.227 100.804)"/><radialGradient cx="269.143" cy="359.912" r="261.018" fx="269.143" fy="359.912" id="v" xlink:href="#k" gradientUnits="userSpaceOnUse" gradientTransform="matrix(.99954 -.03037 .01425 .46913 -.373 106.33)"/><linearGradient x1="647.755" y1="795.022" x2="365.511" y2="185.841" id="w" xlink:href="#g" gradientUnits="userSpaceOnUse" gradientTransform="rotate(3.546 1744.91 387.439)"/><radialGradient cx="953.099" cy="1745.228" r="341.543" fx="1171.381" fy="2532.956" id="t" xlink:href="#c" gradientUnits="userSpaceOnUse" gradientTransform="matrix(-.87198 1.15116 -.20616 -.15616 1391.206 -417.115)"/><radialGradient cx="358.895" cy="264.81" r="341.543" fx="366.263" fy="365.949" id="s" xlink:href="#m" gradientUnits="userSpaceOnUse" gradientTransform="matrix(-.92287 .66931 -.23712 -.32695 819.08 106.884)"/><linearGradient x1="178.967" y1="286.362" x2="423.566" y2="433.986" id="y" xlink:href="#n" gradientUnits="userSpaceOnUse" gradientTransform="rotate(3.546 1744.91 387.439)"/><linearGradient x1="313.861" y1="372.63" x2="380.471" y2="424.511" id="D" xlink:href="#o" gradientUnits="userSpaceOnUse" gradientTransform="rotate(3.546 1744.91 387.439)"/><linearGradient x1="41.702" y1="372.207" x2="607.31" y2="372.207" id="A" xlink:href="#p" gradientUnits="userSpaceOnUse"/><radialGradient cx="-93.079" cy="-281.508" r="341.543" fx="111.927" fy="171.26" id="u" xlink:href="#l" gradientUnits="userSpaceOnUse" gradientTransform="matrix(.00992 .21145 -.21859 .01026 618.085 92.108)"/><radialGradient cx="756.098" cy="-549.389" r="341.543" fx="1187.243" fy="-507.591" id="E" xlink:href="#r" gradientUnits="userSpaceOnUse" gradientTransform="matrix(.16572 -.1181 .17615 .24718 618.742 313.198)"/></defs><path d="M663.922 164.582a150.492 150.492 0 0 0 5.63-5.555c-1.083-6.034-2.802-13.613-5.415-19.646-3.884-8.966-21.963-22.65-30.756-28.932 3.29 2.29 10.657 7.401 24.682 17.223 9.09 6.365 15.71 15.039 19.889 21.66 20.301-25.909 27.998-58.009 14.914-102.277-6.018-7.556-26.956-6.228-56.552 1.943a2362.876 2362.876 0 0 1-8.4 20.686c-5.732 13.878-8.223 19.498-8.223 19.498s4.614-23 6.088-37.072c-82.05 25.303-218.104 95.337-298.433 173.861C153.1 396.303 138.57 453.805 162.978 480.161c116.8-45.184 102.527 25.28 268.194-140.612 74.4-74.5 174.867-120.617 232.75-174.967z" style="marker:none" fill="url(#s)" overflow="visible" transform="translate(-41.702 -40.422)"/><path d="M141.205 431.48s93.353-111.712 193.772-197.526C424.684 157.36 548.9 74.394 548.9 74.394s-95.305 54.575-138.594 86.527c-44.537 32.874-99.784 68.556-150.87 124.922-51.085 56.366-109.968 112.983-109.968 112.983l-30.267 35.99s20.47-1.407 22.004-3.337z" style="marker:none" fill-opacity=".929" overflow="visible"/><path d="M663.922 164.582a150.492 150.492 0 0 0 5.63-5.555c-1.083-6.034-2.802-13.613-5.415-19.646-3.884-8.966-21.963-22.65-30.756-28.932 3.29 2.29 10.657 7.401 24.682 17.223 9.09 6.365 15.71 15.039 19.889 21.66 20.301-25.909 27.998-58.009 14.914-102.277-6.018-7.556-26.956-6.228-56.552 1.943a2362.876 2362.876 0 0 1-8.4 20.686c-5.732 13.878-8.223 19.498-8.223 19.498s4.614-23 6.088-37.072c-82.05 25.303-218.104 95.337-298.433 173.861C153.1 396.303 138.57 453.805 162.978 480.161c116.8-45.184 102.527 25.28 268.194-140.612 74.4-74.5 174.867-120.617 232.75-174.967z" style="marker:none" fill="url(#t)" overflow="visible" transform="translate(-41.702 -40.422)"/><path d="M663.922 164.582a150.492 150.492 0 0 0 5.63-5.555c-1.083-6.034-2.802-13.613-5.415-19.646-3.884-8.966-21.963-22.65-30.756-28.932 3.29 2.29 10.657 7.401 24.682 17.223 9.09 6.365 15.71 15.039 19.889 21.66 20.301-25.909 27.998-58.009 14.914-102.277-6.018-7.556-26.956-6.228-56.552 1.943a2362.876 2362.876 0 0 1-8.4 20.686c-5.732 13.878-8.223 19.498-8.223 19.498s4.614-23 6.088-37.072c-82.05 25.303-218.104 95.337-298.433 173.861C153.1 396.303 138.57 453.805 162.978 480.161c116.8-45.184 102.527 25.28 268.194-140.612 74.4-74.5 174.867-120.617 232.75-174.967z" style="marker:none" fill="url(#u)" overflow="visible" transform="translate(-41.702 -40.422)"/><path d="M565.526 66.45S409.287 146.868 250.859 303.72C92.429 460.569 41.604 555.945 41.604 555.945L1.773 597.118 0 595.448s96.424-164.62 208.96-270.652C452.06 95.772 569.177 66.966 565.527 66.45z" style="marker:none" opacity=".845" overflow="visible"/><path d="M173.446 476.805c26.368-9.954 55.32-16.77 82.787-18.399 15.49-.68 30.658-4.873 44.486-11.335 9.392-2.253 15.31-11.417 24.136-12.74 12.968-9.885 27.184-21.22 39.11-30.653 11.776-11.828 25.872-23.555 38.05-36.153 34.397-32.546 67.754-66.468 107.508-92.889 27.984-20.121 57.105-38.34 85.643-57.67 16.295-9.353 30.467-22.195 45.95-33.259 11.048-10.418 34.254-19.68 25.324-38.206-1.493-12.026-12.712-17.213-19.254-25.127 11.882 7.052 21.837 16.707 30.762 27.352 11.636-10.693 16.34-27.49 20.098-42.516 1.16-8.189 1.326-14.97 1.226-21.81-.803-6.642.203-11.79-2.737-18.486-.868-8.48-3.332-18.196-7.506-21.398-5.474 1.098-14.766-5.04-18.839-.222-2.543-2.205-9.398-.434-12.93.62-6.975 1.443-14.3 2.842-19.593 5.01-6.187 4.41-6.977 18.843-12.986 26.566-2.39 14.98-5.498 5.187-1.626-2.103 1.135-9.462.751-12.55 3.306-20.724-4.812 1.372-11.71 4.08-19.178 4.619-10.304 6.789-24.47 9.673-35.85 14.794-15.55 6.743-31.342 14.576-47.021 21.72-10.433 7.226-22.836 10.037-33.17 16.94-8.002 5.74-16.894 8.571-24.376 13.92-7.24 4.05-14.97 8.385-18.263 11.896-4.271.308-6.896 2.503-9.86 4.735-7.462 2.318-12.387 8.905-19.061 11.822-7.663 7.27-18.622 10.357-25.906 17.776-14.407 11.297-31.38 23.016-45.647 36.19-16.254 14.311-31.377 29.337-46.922 44.332-7.41 11.116-19.407 17.32-26.373 27.867-8.435 8.14-13.35 17.155-22.334 23.676-4.81 10.632-14.486 11.575-16.794 19.78-6.501 5.038-11.337 12.459-17.313 19.604-12.524 15.047-26.504 31.35-37.363 49.17-13.871 21.38-28.716 46.471-25.14 72.985M675.22 42.083l.163.467-.164-.467zm14.776 2.043l.022.366-.022-.366zm-.446 1.131l-.104-.139.104.14zm1.698.387c1.147 1.026-1.148.067 0 0zm-44.91 1.726c1.207.998-1.135-.577 0 0zm-.804-.175l-.293.168.293-.168zM620.46 86.5c-.004 3.697-2.634 2.316 0 0zm18.647 28.52l.313.16-.313-.16zm1.565.505c16.388 10.299-2.998.191 0 0zm4.887 3.997l.051-.128-.05.128zm.79.393l-.13.053.13-.053zm.232.297l-.36.155.36-.155zm1.85 2.494l.173.207-.174-.207zm29.534 26.127l.249.14-.25-.14zm.234.265l.14.098-.14-.098zm-34.809 33.724l.02-.098-.02.098zm-5.027 3.821l.116.27-.116-.27zm-14.469 10.156l.445-.032-.445.032zm-18.65 13.466l-.14-.002.14.002zm-8.979 5.455l-.226-.097.226.097zm-318.03 59.85l-.128-.01.129.01zm-14.935 15.168l.06-.044-.06.044zm-13.173 16.028c1.464 1.745-1.558.147 0 0zm-11.807 11.166l-.274-.08.274.08zm.79.895c-.225 1.766-1.584-1.05 0 0zm-2.382 2.576c1.418 2.19-1.858 1.497 0 0zm-2.227 2.085l.079-.07-.08.07zm-4.903 2.827l.24.41-.24-.41zm-3.253 5.497l.263.126-.263-.126zm-5.314 5.933l.011.15-.011-.15zm-1.77 3.804l-.605.34.605-.34zm-3.163 5.064l.034.144-.034-.144zm-3.57 1.532l.028.06-.029-.06zm-2.46 3.824l.09.089-.09-.09zm-1.973 1.506l.211.27-.21-.27zm195.302 13.793l.06-.021-.06.021zm-15.889 14.389l-.19.153.19-.153zm-2.98 3.134l.083.003-.084-.003zm-3.835 3.27l.223-.176-.223.175zm-16.684 16.092l.066.024-.066-.024zm-5.159 4.94l.03-.496-.03.496zm-1.583-.223l-.14.086.14-.086zm-11.186 8.73l.256.042-.256-.041zm-6.137 4.035l.207.167-.207-.167zm-.15 1.431l.001.175-.002-.175zm.033.973l.207-.098-.207.098zm-2.095 1.968l.044.174-.044-.174zm-2.387.635l-.031.159.03-.16zm.45.31l-.165.295.165-.296zm.706.23l-.037-.116.037.117zm-.335.356l.113.246-.113-.246zm-9.792 5.937l-.039.228.039-.228zm-3.068.499l-.074.041.074-.041zm.942.966l.265.063-.265-.063zm.618.132l.06-.044-.06.044zm-4.69.398l.262-.18-.262.18zm3.144.289l.052.253-.052-.253zm-3.646.745l-.155-.041.155.04zm.263.298l.048.183-.048-.183zm-2.132 1.057l.09-.08-.09.08zm-4.25-.138l.07.105-.07-.105zm.466.561l.075.132-.075-.132zm-1.027 3.444l.123-.13-.123.13zm.583.192l.008.076-.008-.076zm-1.481.66l-.268.325.268-.325zm.759.892l-.088-.39.088.39zm-6.818 1.394l-.226-.355.226.355zm-5.478 3.511l.08-.164-.08.164zm-1.164.085l-.06.235.06-.235zm-.037.592l-.02.09.02-.09zm-4.327.609l.23-.054-.23.054zm-.31.45l.061-.076-.06.076zm-3.985.661l.225.045-.225-.045zm-.6.59l.123.097-.123-.098zm-.066.559l.267-.295-.267.295zm-6.856 3.019l-.006.048.006-.048zm-16.19 1.032l.003.102-.002-.102zm-4.182.805l.06.077-.06-.077z" style="marker:none" fill="url(#v)" stroke="url(#w)" stroke-width="2" stroke-linejoin="round" stroke-dashoffset="68" overflow="visible" transform="translate(-41.702 -40.422)"/><path d="M607.228 106.873S450.989 187.29 292.56 344.14 83.306 596.367 83.306 596.367l-39.832 41.174-1.772-1.67s96.423-164.62 208.96-270.652c243.1-229.024 360.216-257.831 356.566-258.346z" style="marker:none" opacity=".678" fill="url(#x)" overflow="visible" transform="translate(-41.702 -40.422)"/><path d="M182.914 474.232s50.397-17.495 87.66-38.095c37.261-20.6 39.548-17.165 50.212-27.96 10.665-10.793 26.65-21.4 26.65-21.4l-25.427-14.462 31.859 10.136s20.958-15.597 31.906-30.955c10.948-15.358 21.471-23.87 31.994-32.38 10.524-8.512 13.208-11.496 13.208-11.496l-32.123-19.316 34.205 15.293s15.188-8.509 28.127-23.743c12.94-15.235 41.84-46.09 48.31-53.707 6.47-7.617 35.695-27.57 54.326-37.87 18.63-10.3 39.324-21.617 51.697-27.723 12.374-6.106 34.16-18.93 34.16-18.93l-7.447-16.928-10.745-12.12s2.621-12.724 7.043-14.169c4.42-1.444 39.125-13.039 43.391-17.356 4.266-4.318 11.425-23.06 11.425-23.06l-8.394-12.405-42.266 31.458 15.7-27.52-14.477 2.396S628.682 77.18 626.32 83.046c-2.363 5.867-20.46 26.366-20.46 26.366s-51.05 25.33-57.815 32.356c-6.766 7.026-84.378 65.79-96.77 72.18-12.39 6.392-51.223 36.201-55.56 41.66-4.336 5.458-68.335 59.624-68.335 59.624l-53.202 54.692-62.234 66.016-42.607 42.318 13.578-4.026z" style="marker:none" opacity=".785" fill="url(#y)" overflow="visible" transform="translate(-41.702 -40.422)"/><path d="M607.228 106.873S450.989 187.29 292.56 344.14 83.306 596.367 83.306 596.367l-39.832 41.174-1.772-1.67s96.423-164.62 208.96-270.652c243.1-229.024 360.216-257.831 356.566-258.346z" style="marker:none" opacity=".755" fill="url(#z)" overflow="visible" transform="translate(-41.702 -40.422)"/><path d="M607.228 106.873S450.989 187.29 292.56 344.14 83.306 596.367 83.306 596.367l-39.832 41.174-1.772-1.67s96.423-164.62 208.96-270.652c243.1-229.024 360.216-257.831 356.566-258.346z" style="marker:none" fill="url(#A)" overflow="visible" transform="translate(-41.702 -40.422)"/><path d="M182.914 474.232s50.397-17.495 87.66-38.095c37.261-20.6 39.548-17.165 50.212-27.96 10.665-10.793 26.65-21.4 26.65-21.4l-25.427-14.462 31.859 10.136s20.958-15.597 31.906-30.955c10.948-15.358 21.471-23.87 31.994-32.38 10.524-8.512 13.208-11.496 13.208-11.496l-32.123-19.316 34.205 15.293s15.188-8.509 28.127-23.743c12.94-15.235 41.84-46.09 48.31-53.707 6.47-7.617 35.695-27.57 54.326-37.87 18.63-10.3 39.324-21.617 51.697-27.723 12.374-6.106 34.16-18.93 34.16-18.93l-7.447-16.928-10.745-12.12s2.621-12.724 7.043-14.169c4.42-1.444 39.125-13.039 43.391-17.356 4.266-4.318 11.425-23.06 11.425-23.06l-8.394-12.405-42.266 31.458 15.7-27.52-14.477 2.396S628.682 77.18 626.32 83.046c-2.363 5.867-20.46 26.366-20.46 26.366s-51.05 25.33-57.815 32.356c-6.766 7.026-84.378 65.79-96.77 72.18-12.39 6.392-51.223 36.201-55.56 41.66-4.336 5.458-68.335 59.624-68.335 59.624l-53.202 54.692-62.234 66.016-42.607 42.318 13.578-4.026z" style="marker:none" opacity=".722" fill="url(#B)" overflow="visible" transform="translate(-41.702 -40.422)"/><path d="M159.666 464.875s128.31-129.503 166.562-166.078c38.252-36.575 143.121-113.122 143.121-113.122s90.873-60.375 96.919-61.146c6.045-.77 33.476-15.966 33.476-15.966l11.754-6.86s1.772-23.23.993-32.155c-.78-8.925-21.212 3.554-21.212 3.554l-8.386 11.65-4.694-7.592s-64.658 24.486-84.497 38.147c-19.839 13.662-22.668 24.368-22.668 24.368l-5.043 27.608s-.953-11.513-2.414-20.195c-1.46-8.681 3.53-13.956 3.53-13.956s-41.45 26.354-51.902 33.725c-10.453 7.37-30.38 22.458-30.38 22.458l-.528 16.576 4.522 15.744s-10.21-12.66-9.627-22.074c.583-9.414-73.366 57.451-73.366 57.451l8.371 20.85-14.287-16.778s-54.459 64.207-59.632 67.037c-5.173 2.83-14.621 10.119-14.621 10.119l17.977 10.993-22.927-3.711s-71.834 78.45-61.041 119.353z" style="marker:none" fill="url(#C)" overflow="visible" transform="translate(-41.702 -40.422)"/><path d="M182.914 474.232s50.397-17.495 87.66-38.095c37.261-20.6 39.548-17.165 50.212-27.96 10.665-10.793 26.65-21.4 26.65-21.4l-25.427-14.462 31.859 10.136s20.958-15.597 31.906-30.955c10.948-15.358 21.471-23.87 31.994-32.38 10.524-8.512 13.208-11.496 13.208-11.496l-32.123-19.316 34.205 15.293s15.188-8.509 28.127-23.743c12.94-15.235 41.84-46.09 48.31-53.707 6.47-7.617 35.695-27.57 54.326-37.87 18.63-10.3 39.324-21.617 51.697-27.723 12.374-6.106 34.16-18.93 34.16-18.93l-7.447-16.928-10.745-12.12s2.621-12.724 7.043-14.169c4.42-1.444 39.125-13.039 43.391-17.356 4.266-4.318 11.425-23.06 11.425-23.06l-8.394-12.405-42.266 31.458 15.7-27.52-14.477 2.396S628.682 77.18 626.32 83.046c-2.363 5.867-20.46 26.366-20.46 26.366s-51.05 25.33-57.815 32.356c-6.766 7.026-84.378 65.79-96.77 72.18-12.39 6.392-51.223 36.201-55.56 41.66-4.336 5.458-68.335 59.624-68.335 59.624l-53.202 54.692-62.234 66.016-42.607 42.318 13.578-4.026z" style="marker:none" opacity=".695" fill="url(#D)" overflow="visible" transform="translate(-41.702 -40.422)"/><path d="M663.922 164.582a150.492 150.492 0 0 0 5.63-5.555c-1.083-6.034-2.802-13.613-5.415-19.646-3.884-8.966-21.963-22.65-30.756-28.932 3.29 2.29 10.657 7.401 24.682 17.223 9.09 6.365 15.71 15.039 19.889 21.66 20.301-25.909 27.998-58.009 14.914-102.277-6.018-7.556-26.956-6.228-56.552 1.943a2362.876 2362.876 0 0 1-8.4 20.686c-5.732 13.878-8.223 19.498-8.223 19.498s4.614-23 6.088-37.072c-82.05 25.303-218.104 95.337-298.433 173.861C153.1 396.303 138.57 453.805 162.978 480.161c116.8-45.184 102.527 25.28 268.194-140.612 74.4-74.5 174.867-120.617 232.75-174.967z" style="marker:none" fill="url(#E)" overflow="visible" transform="translate(-41.702 -40.422)"/></svg>