<?xml version="1.0" encoding="UTF-8"?>
<!DOCTYPE svg PUBLIC "-//W3C//DTD SVG 1.0//EN" "http://www.w3.org/TR/2001/REC-SVG-20010904/DTD/svg10.dtd">
<!-- Creator: CorelDRAW X6 -->
<svg xmlns="http://www.w3.org/2000/svg" xml:space="preserve" width="300px" height="300px" version="1.0" style="shape-rendering:geometricPrecision; text-rendering:geometricPrecision; image-rendering:optimizeQuality; fill-rule:evenodd; clip-rule:evenodd"
viewBox="0 0 300 300"
 xmlns:xlink="http://www.w3.org/1999/xlink">
 <defs>
  <style type="text/css">
   <![CDATA[
    .fil1 {fill:#6C6E71}
    .fil2 {fill:#2B2A29;fill-rule:nonzero}
    .fil3 {fill:#727271;fill-rule:nonzero}
    .fil0 {fill:url(#id0)}
   ]]>
  </style>
  <linearGradient id="id0" gradientUnits="userSpaceOnUse" x1="14.8151" y1="277.641" x2="142.497" y2="16.6765">
   <stop offset="0" style="stop-color:#282662"/>
   <stop offset="0.309804" style="stop-color:#862778"/>
   <stop offset="0.458824" style="stop-color:#CB2038"/>
   <stop offset="0.768627" style="stop-color:#DB5032"/>
   <stop offset="0.870588" style="stop-color:#F69925"/>
   <stop offset="1" style="stop-color:#F69725"/>
  </linearGradient>
 </defs>
 <g id="Layer_x0020_1">
  <metadata id="CorelCorpID_0Corel-Layer"/>
  <g id="_210908880">
   <g>
    <path class="fil0" d="M86 101l-3 7c-1,1 -1,2 -2,3 0,1 -1,1 -1,2l-5 11c0,1 -1,1 -1,2l-2 5c-1,2 -2,5 -3,7l-2 5c-1,1 -1,2 -2,4 0,0 0,1 0,1 0,0 0,1 0,1l-4 9c0,0 0,0 0,1 0,0 0,0 0,0l-9 22c-1,2 -4,12 -4,12 0,0 -4,11 -4,12l-3 9c0,1 -1,2 -1,3 1,0 3,2 4,4 1,1 3,4 3,5l0 0c0,-1 0,-3 -1,-3 0,-1 -1,-3 -2,-4 -1,-2 -2,-3 -3,-3l12 -1c5,-1 10,-3 14,-6 2,-2 4,-3 5,-6 1,-1 2,-3 2,-4 0,0 0,0 -1,0l-2 2c-2,1 -4,2 -6,2 -1,0 -1,0 -2,0 -1,0 -2,0 -2,0 1,0 8,-4 10,-6 6,-5 8,-8 12,-15l-1 1c0,0 -1,1 -1,1 -4,3 -7,5 -13,7 -4,1 -8,1 -12,0l-1 0c2,0 4,-1 6,-1l4 -1c2,-1 8,-4 10,-5 2,-2 6,-4 8,-6l4 -4c0,0 2,-2 2,-3 1,0 5,-7 6,-8 0,-1 1,-1 1,-2 0,0 0,-1 1,-1 1,-2 4,-7 5,-9l3 -9c0,-1 1,-2 1,-3 0,-1 1,-2 1,-3 0,-1 0,-1 0,-1 0,0 0,-1 0,-1 -1,0 -1,1 -2,1 -1,1 -3,1 -5,1 -1,0 -2,0 -3,0l1 -1c1,0 1,0 1,-1 1,-1 3,-2 4,-3l1 -1c0,0 0,0 1,0l3 -3c1,-1 1,-2 2,-2 1,-1 3,-5 3,-6 0,0 -4,2 -5,3 -2,1 -5,2 -6,2l0 0c0,0 0,0 0,0 0,0 0,0 1,0 0,0 1,0 1,-1 4,-2 8,-5 10,-9 0,-1 1,-1 1,-2 2,-3 6,-12 7,-16 0,-1 1,-2 1,-3 -3,2 -4,2 -7,3l-3 1c-1,0 -1,0 -2,0 0,0 0,0 1,-1 2,-1 6,-3 7,-5l2 -2c0,0 1,-1 1,-1l2 -2c1,-1 1,-2 2,-2l2 -3c1,-1 4,-7 5,-9 2,-3 6,-13 7,-17 0,-1 1,-2 1,-2 0,-1 1,-4 1,-5 0,0 1,-4 1,-5 0,-3 0,-5 0,-8 0,-1 0,-2 0,-2 -1,-4 -2,-7 -4,-10 0,0 0,0 -1,-1 -1,-2 -5,-5 -8,-5 0,0 0,0 0,0l-2 0c-4,0 -7,3 -9,6l-4 4c0,0 0,0 0,0l-4 5c0,0 0,0 -1,1l-3 3c0,1 -1,1 -1,2l-14 19c-1,2 -5,7 -6,9 0,0 0,0 0,0 0,0 -3,5 -4,5 0,0 -6,9 -6,10l-3 5c-1,2 -4,6 -5,9 0,0 0,1 -1,1 -2,3 -4,8 -6,11l-3 7c0,0 0,1 -1,1l-1 2c0,0 0,1 -1,1l-8 19 -3 7c0,0 -3,9 -3,10l-1 4c0,1 -1,3 -1,4 0,1 -2,8 -2,9 0,0 0,0 0,0l-1 4c-1,4 -1,8 -2,12 0,0 0,2 0,2l-2 -3c-2,-2 -7,-6 -9,-6l3 5c3,6 6,11 7,18 0,1 0,1 0,2 -1,0 -1,0 -2,0 -1,0 -5,-1 -6,-1 0,0 -1,0 -1,0 -1,0 -2,-1 -3,-1 0,1 6,5 7,5l2 1c1,0 0,0 1,0 -3,0 -7,2 -9,4l-3 2c-1,0 -1,1 -1,1l6 -2c2,-1 7,-2 9,-1 1,0 2,0 2,0 0,1 -3,9 -3,10 0,1 -1,2 -1,3l-6 20c0,0 0,1 -1,2 0,1 -1,1 -1,2 0,0 0,0 0,0l-1 4c0,1 -4,14 -5,15 0,1 -1,5 -2,5 1,0 3,-2 4,-3l2 -5c0,-2 3,-10 3,-11 0,0 0,0 0,0l0 -1c0,0 0,-1 0,-1 0,-1 0,-1 1,-2 0,-1 1,-3 1,-3 0,0 0,0 0,-1 1,-2 2,-6 3,-8 1,-3 2,-7 3,-10 0,-1 0,-1 0,-1l1 -3 12 -32c0,-1 1,-3 1,-3 1,-1 1,-2 1,-4l1 -4c0,-1 1,-2 1,-4 0,-1 0,-1 1,-2l6 -16 20 -45c0,-1 1,-1 1,-2l2 -4c1,-1 5,-11 5,-11l4 -7c0,0 0,0 0,-1l6 -11c0,-1 1,-1 1,-2l2 -3c0,-1 1,-1 1,-2l1 -2c0,0 0,0 0,0 0,0 0,0 0,0l4 -6c0,0 1,-1 1,-1l5 -8c0,0 1,-1 1,-1 0,0 1,-1 1,-1 0,0 2,-2 2,-3 0,0 1,-1 1,-2l7 -10c1,-1 2,-2 2,-2l-7 10c0,1 -2,3 -2,4 0,0 -1,1 -1,1l-8 12c-1,1 -2,4 -3,5 -1,0 -5,10 -6,11l-5 9c0,0 -2,5 -3,5 0,1 -1,2 -1,3 0,1 -1,2 -1,3z"/>
    <path class="fil1" d="M155 47l1 0 0 -4 2 3 1 0 2 -3 0 4 1 0 0 -6c-1,0 -1,0 -1,1l-1 2c0,1 0,1 -1,1l-1 -3c0,-1 0,-1 -1,-1l0 6z"/>
    <path class="fil1" d="M150 41l0 1 2 0 0 5 1 0 0 -5 2 0c0,-1 0,-1 -4,-1 0,0 0,0 0,0z"/>
   </g>
   <path class="fil2" d="M85 231l-12 0c-2,0 -4,0 -5,0 -1,0 -2,0 -3,1 -1,0 -1,1 -1,1 0,1 -1,1 -1,2l21 0 0 -4zm7 20l-7 0 0 -10 -22 0 0 10 -6 0 0 -13c0,-2 0,-4 1,-6 1,-2 1,-3 3,-4 1,-1 3,-2 4,-3 2,-1 4,-1 6,-1l21 0 0 27zm5 0l0 -27 36 0 0 5c0,8 -4,11 -12,11l-14 0 0 -6 15 0c1,0 2,0 3,-1 1,-1 1,-2 1,-3l-23 0 0 20 -6 0zm66 -20l-12 0c-2,0 -4,0 -5,0 -1,0 -2,0 -3,1 -1,0 -1,1 -1,1 0,1 -1,1 -1,2l21 0 0 -4zm7 20l-7 0 0 -10 -22 0 0 10 -6 0 0 -13c0,-2 0,-4 1,-6 1,-2 1,-3 3,-4 1,-1 3,-2 4,-3 2,-1 4,-1 6,-1l21 0 0 27zm38 0l-33 0 0 -13c0,-2 0,-4 1,-6 1,-2 1,-3 3,-4 1,-1 3,-2 4,-3 2,-1 4,-1 6,-1l20 0 0 6 -20 0c-5,0 -7,2 -7,7l0 7 27 0 0 6zm38 0l-6 0 0 -10 -21 0 0 10 -6 0 0 -27 6 0 0 10 21 0 0 -10 6 0 0 27zm39 -20l-27 0 0 4 27 0 0 6 -26 0c0,1 1,2 2,3 1,1 3,1 5,1l20 0 0 6 -21 0c-2,0 -4,0 -6,-1 -2,-1 -3,-2 -4,-3 -1,-1 -2,-3 -3,-4 -1,-2 -1,-3 -1,-6l0 -13 34 0 0 6z"/>
   <path class="fil3" d="M56 282l0 -18 3 0 0 7 12 0 0 -7 3 0 0 18 -3 0 0 -8 -12 0 0 8 -3 0zm30 0l0 -16 -8 0 0 -2 18 0 0 2 -8 0 0 16 -3 0zm21 0l0 -16 -8 0 0 -2 18 0 0 2 -8 0 0 16 -3 0zm15 0l0 -18 9 0c2,0 3,0 3,0 1,0 2,0 3,1 1,0 1,1 2,2 0,1 1,2 1,2 0,2 -1,3 -2,4 -1,1 -3,2 -7,2l-6 0 0 7 -3 0zm3 -9l6 0c2,0 3,0 4,-1 1,-1 1,-1 1,-2 0,-1 0,-1 -1,-2 0,-1 -1,-1 -2,-1 -1,0 -1,0 -3,0l-6 0 0 6zm27 4l3 0c0,1 0,2 1,2 0,1 1,1 2,1 1,0 2,1 4,1 1,0 2,0 3,0 1,0 2,-1 2,-1 0,0 1,-1 1,-2 0,-1 0,-1 -1,-1 0,0 -1,-1 -2,-1 -1,0 -2,0 -4,-1 -2,0 -4,-1 -4,-1 -1,0 -2,-1 -2,-2 -1,-1 -1,-1 -1,-2 0,-1 0,-2 1,-3 1,-1 2,-1 3,-2 1,0 3,-1 4,-1 2,0 3,0 5,1 1,0 2,1 3,2 1,1 1,2 1,3l-3 0c0,-1 -1,-2 -2,-3 -1,-1 -2,-1 -4,-1 -2,0 -3,0 -4,1 -1,1 -1,1 -1,2 0,1 0,1 1,2 1,0 2,1 5,1 2,0 4,1 5,1 1,0 2,1 3,2 1,1 1,2 1,3 0,1 0,2 -1,3 -1,1 -2,1 -3,2 -1,0 -3,1 -4,1 -2,0 -4,0 -5,-1 -1,0 -3,-1 -3,-2 -1,-1 -1,-2 -1,-3zm24 6l0 -18 17 0 0 2 -14 0 0 5 13 0 0 2 -13 0 0 6 14 0 0 2 -17 0zm23 0l0 -18 10 0c2,0 4,0 5,0 1,0 2,1 3,2 1,1 1,2 1,3 0,1 -1,2 -2,3 -1,1 -3,1 -5,2 1,0 1,1 2,1 1,1 2,1 3,2l4 5 -4 0 -3 -4c-1,-1 -2,-2 -2,-2 -1,-1 -1,-1 -2,-1 0,0 -1,0 -1,0 0,0 -1,0 -2,0l-4 0 0 8 -3 0zm3 -10l7 0c1,0 2,0 3,0 1,0 1,-1 2,-1 0,0 1,-1 1,-2 0,-1 0,-2 -1,-2 -1,-1 -2,-1 -4,-1l-7 0 0 6zm27 10l-9 -18 3 0 6 13c0,1 1,2 1,3 0,-1 1,-2 1,-3l6 -13 3 0 -9 18 -3 0zm16 0l0 -18 17 0 0 2 -14 0 0 5 13 0 0 2 -13 0 0 6 14 0 0 2 -17 0zm23 0l0 -18 10 0c2,0 4,0 5,0 1,0 2,1 3,2 1,1 1,2 1,3 0,1 -1,2 -2,3 -1,1 -3,1 -5,2 1,0 1,1 2,1 1,1 2,1 3,2l4 5 -4 0 -3 -4c-1,-1 -2,-2 -2,-2 -1,-1 -1,-1 -2,-1 0,0 -1,0 -1,0 0,0 -1,0 -2,0l-4 0 0 8 -3 0zm3 -10l7 0c1,0 2,0 3,0 1,0 1,-1 2,-1 0,0 1,-1 1,-2 0,-1 0,-2 -1,-2 -1,-1 -2,-1 -4,-1l-7 0 0 6z"/>
  </g>
 </g>
</svg>
