<?xml version="1.0" standalone="no"?>
<!DOCTYPE svg PUBLIC "-//W3C//DTD SVG 20010904//EN"
 "http://www.w3.org/TR/2001/REC-SVG-20010904/DTD/svg10.dtd">
<svg version="1.0" xmlns="http://www.w3.org/2000/svg"
 width="350.000000pt" height="350.000000pt" viewBox="0 0 350.000000 350.000000"
 preserveAspectRatio="xMidYMid meet">
<metadata>
Created by potrace 1.15, written by Peter Selinger 2001-2017
</metadata>
<g transform="translate(0.000000,350.000000) scale(0.100000,-0.100000)"
fill="#000000" stroke="none">
<path d="M207 3489 c-57 -13 -89 -33 -131 -79 -77 -86 -71 64 -71 -1655 0
-1248 2 -1547 13 -1577 20 -56 95 -134 150 -155 45 -17 121 -18 1582 -18 1461
0 1537 1 1582 18 55 21 130 99 150 155 11 30 13 329 13 1577 0 1411 -1 1543
-17 1576 -24 55 -87 119 -138 143 -45 21 -46 21 -1570 23 -873 0 -1541 -3
-1563 -8z m3105 -102 c31 -18 57 -44 75 -75 l28 -47 0 -1515 0 -1515 -28 -47
c-18 -31 -44 -57 -75 -75 l-47 -28 -1515 0 -1515 0 -47 28 c-31 18 -57 44 -75
75 l-28 47 0 1515 0 1515 27 47 c28 46 74 82 126 98 15 5 702 8 1527 7 l1500
-2 47 -28z"/>
<path d="M2340 3028 c-315 -201 -656 -500 -841 -738 -237 -303 -502 -747 -564
-940 -26 -85 -33 -177 -14 -211 9 -17 -4 -49 -74 -192 -120 -243 -266 -582
-255 -593 12 -12 133 187 178 292 28 66 87 191 133 278 l82 159 91 47 c51 26
145 64 210 85 66 20 146 53 179 73 99 59 209 180 411 452 212 284 267 347 568
641 240 235 330 340 320 373 -10 32 -54 87 -65 80 -17 -10 -140 37 -174 67
-26 23 -35 41 -44 90 -12 58 -29 100 -41 98 -3 0 -48 -27 -100 -61z"/>
<path d="M2182 903 l-22 -4 2 -212 3 -212 40 0 40 0 3 111 c3 120 9 131 57
114 18 -6 21 -19 25 -116 l5 -109 43 -3 42 -3 0 106 c0 130 -13 169 -67 191
-21 9 -51 14 -70 11 l-33 -6 0 70 c0 75 0 75 -68 62z"/>
<path d="M921 807 c-42 -94 -121 -304 -121 -322 0 -13 9 -15 42 -13 39 3 42 5
56 46 l14 42 77 0 77 0 14 -42 c14 -41 17 -43 59 -46 l44 -3 -6 31 c-7 32 -77
216 -120 313 -25 56 -27 57 -67 57 -41 0 -41 0 -69 -63z"/>
<path d="M1295 773 c-72 -15 -65 9 -65 -208 l0 -195 45 0 45 0 0 54 0 54 43
-5 c54 -6 101 16 122 57 46 89 19 195 -57 230 -40 18 -87 23 -133 13z"/>
<path d="M1608 773 c-29 -4 -32 -12 -22 -50 6 -21 10 -22 59 -17 47 6 54 4 69
-17 l17 -24 -58 -6 c-76 -8 -91 -15 -109 -51 -23 -45 -11 -94 29 -118 33 -21
105 -26 180 -14 l37 7 0 99 c0 64 -5 111 -15 134 -22 54 -84 73 -187 57z"/>
<path d="M1952 764 c-49 -25 -75 -69 -80 -133 -7 -110 51 -165 165 -159 34 2
64 6 66 8 3 3 2 19 0 37 -5 32 -6 32 -49 26 -66 -9 -94 14 -94 75 0 26 4 52 8
58 14 22 50 33 85 27 33 -5 35 -3 42 27 4 17 5 34 2 36 -3 3 -29 7 -58 10 -39
3 -63 0 -87 -12z"/>
<path d="M2560 762 c-23 -11 -43 -33 -57 -62 -59 -116 9 -230 136 -230 74 0
101 8 101 30 0 43 -9 49 -65 43 -54 -6 -105 12 -105 37 0 5 42 11 93 12 l92 3
-1 51 c-2 61 -25 101 -71 120 -44 19 -81 18 -123 -4z"/>
</g>
</svg>
