<svg xmlns="http://www.w3.org/2000/svg" width="512" height="512"><path opacity=".3" fill="#333" d="M401.214 429.85c0 27.739-64.25 50.223-143.495 50.223-79.259 0-143.509-22.483-143.509-50.223 0-27.738 64.248-50.227 143.509-50.227 79.245 0 143.495 22.492 143.495 50.227z"/><g opacity=".5" fill="#333"><path d="M218.717 478.199V442.4c0-4.623-.836-8.489-2.233-11.755 9.258 7.189 9.883 25.256 9.883 25.256v22.971c8.33.65 16.933 1.045 25.739 1.163l-.232-22.857c-1.275-31.247-28.057-35.071-28.057-35.071-9.788-2.222-9.642 2.689-8.658 5.863-9.602-16.376-35.337-14.261-35.337-14.261-8.931 3.185-.642 8.926-.642 8.926 14.032 5.1 15.306 20.405 15.306 20.405v31.912a339.515 339.515 0 0 0 24.235 3.242l-.004.005zM331.587 413.706s-25.739-2.115-35.341 14.265c.984-3.175 1.134-8.091-8.656-5.867 0 0-26.781 3.826-28.056 35.071l-.235 22.894a406.18 406.18 0 0 0 25.74-.907V455.9s.629-18.066 9.884-25.256c-1.397 3.265-2.233 7.13-2.233 11.754v36.171a348.9 348.9 0 0 0 24.231-2.955v-32.575s1.275-15.306 15.307-20.405c0-.014 8.28-5.755-.648-8.943l.007.015z"/></g><path fill="#333" d="M510.963 221.659l.378-1.876c-42.098-8.417-85.299-8.502-111.434-7.417 4.293-15.469 5.585-33.269 5.585-53.118 0-28.468-10.695-51.242-28.059-68.572 3.034-9.794 7.087-31.545-4.048-59.391 0 0-19.644-6.237-64.075 23.5-17.406-4.35-35.93-6.498-54.48-6.498-20.411 0-41.036 2.599-60.271 7.875-45.851-31.279-66.091-24.872-66.091-24.872-13.212 33.04-5.043 57.503-2.562 63.579-15.529 16.759-25.009 38.154-25.009 64.384 0 19.802 2.254 37.566 7.761 53.006-26.358-.959-67.982-.59-108.578 7.527l.373 1.876c40.84-8.167 82.727-8.451 108.923-7.459a96.131 96.131 0 0 0 4.081 9.293c-25.906.834-70.143 4.136-112.536 16.096l.522 1.837c42.729-12.047 87.348-15.267 113.003-16.051 15.479 28.853 45.997 47.487 100.287 53.34-7.706 5.178-15.566 13.98-18.752 28.874-10.5 5.023-43.742 17.283-63.685-17.02 0 0-11.164-20.412-32.533-22.01 0 0-20.729-.317-1.431 12.918 0 0 13.87 6.535 23.44 31.097 0 0 12.484 41.892 72.727 28.452v43.272s-1.274 15.306-15.306 20.405c0 0-8.291 5.74.642 8.925 0 0 38.896 3.189 38.896-28.691v-47.187s-1.542-18.713 7.65-25.217v77.504s-.635 18.491-10.201 25.506c0 0-6.38 11.475 7.65 8.291 0 0 26.781-3.826 28.058-35.071l.606-78.435h6.437l.612 78.435c1.273 31.245 28.056 35.071 28.056 35.071 14.026 3.184 7.65-8.291 7.65-8.291-9.564-7.015-10.2-25.506-10.2-25.506v-76.836c9.188 7.154 7.65 24.548 7.65 24.548v47.187c0 31.882 38.896 28.69 38.896 28.69 8.924-3.184.641-8.924.641-8.924-14.031-5.1-15.307-20.405-15.307-20.405v-61.854c0-24.119-10.156-36.893-20.088-43.635 57.899-5.742 85.684-24.438 98.486-53.485 25.361.697 71.001 3.787 114.657 16.102l.519-1.837c-43.406-12.244-88.745-15.412-114.362-16.157 1.213-2.934 2.272-5.986 3.212-9.125 26.006-1.081 69.411-1.067 111.668 7.376l-.058-.026zm-387.602 69.548c-2.287 0-4.147-1.28-4.147-2.866 0-1.587 1.86-2.874 4.147-2.874 2.288 0 4.146 1.283 4.147 2.876-.002 1.585-1.86 2.864-4.147 2.864zm4.147-2.862v-.002-.002.004zm2.229 12.426c-2.287 0-4.147-1.28-4.147-2.866 0-1.587 1.86-2.874 4.147-2.874 2.288 0 4.146 1.283 4.147 2.876-.001 1.585-1.859 2.864-4.147 2.864zm4.148-2.862v-.002-.002.004zm-24.876-24.237c-.001 1.585-1.859 2.865-4.146 2.865s-4.147-1.281-4.147-2.867c0-1.588 1.86-2.873 4.147-2.873s4.145 1.282 4.146 2.875zm31.884 33.165v-.002.002zm-31.884-33.165v-.002.002zm11.484 6.379v-.002-.003.005zm-4.147 2.861c-2.287 0-4.147-1.279-4.147-2.866s1.86-2.873 4.147-2.873 4.145 1.282 4.146 2.876c-.002 1.585-1.859 2.863-4.146 2.863zm34.125 31.571c-.001 1.585-1.859 2.864-4.147 2.864-2.287 0-4.147-1.28-4.147-2.866 0-1.587 1.86-2.874 4.147-2.874s4.145 1.283 4.147 2.876zm-9.578-7.646c-.001 1.585-1.859 2.864-4.147 2.864-2.287 0-4.147-1.28-4.147-2.866 0-1.587 1.86-2.874 4.147-2.874s4.145 1.283 4.147 2.876zm36.299 12.753c-.001 1.585-1.859 2.864-4.147 2.864-2.287 0-4.147-1.28-4.147-2.866 0-1.588 1.86-2.873 4.147-2.873 2.288 0 4.145 1.282 4.147 2.875zm13.523-2.216c-.001 1.585-1.859 2.864-4.147 2.864-2.287 0-4.147-1.28-4.147-2.866 0-1.587 1.86-2.874 4.147-2.874s4.145 1.283 4.147 2.876zm0 .002v-.002-.002.004zm-13.523 2.214v-.002.002zm-26.721-5.107v-.002.002zm13.387 5.107v-.002.002zm0 0c-.001 1.585-1.859 2.864-4.147 2.864-2.287 0-4.147-1.28-4.147-2.866 0-1.588 1.86-2.873 4.147-2.873 2.288 0 4.146 1.282 4.147 2.875zm204.773-122.038c0 68.633-51.162 70.493-114.268 70.493-63.117 0-114.273-9.504-114.273-70.493 0-14.602 7.192-28.16 19.509-39.412 20.545-18.752 55.315-8.823 94.763-8.823 39.271-.005 73.923-10.036 94.497 8.588l.007.006c12.47 11.298 19.765 24.942 19.765 39.641z"/><path opacity=".3" fill="#333" d="M348.865 157.912l-.007-.006c-20.574-18.624-55.226-8.593-94.497-8.588-39.448 0-74.218-9.929-94.763 8.823-12.316 11.252-19.509 24.81-19.509 39.412 0 60.989 51.157 70.493 114.273 70.493 63.106 0 114.268-1.86 114.268-70.493.001-14.7-7.294-28.344-19.765-39.641zm-156.288 77.359c-13.131 0-23.776-15.322-23.776-34.227 0-18.902 10.646-34.219 23.776-34.219 13.131.014 23.776 15.319 23.776 34.219 0 18.905-10.645 34.227-23.776 34.227zm127.568 0c-13.131 0-23.776-15.322-23.776-34.227 0-18.902 10.646-34.219 23.776-34.219 13.131.014 23.776 15.319 23.776 34.219 0 18.905-10.646 34.227-23.776 34.227zM109.01 273.67c0 1.586-1.858 2.867-4.147 2.867-2.287 0-4.147-1.281-4.147-2.867 0-1.588 1.86-2.873 4.147-2.873 2.289 0 4.147 1.283 4.147 2.877v-.004zm11.483 6.376c0 1.587-1.859 2.866-4.147 2.866-2.287 0-4.147-1.279-4.147-2.866s1.86-2.873 4.147-2.873c2.288 0 4.147 1.283 4.147 2.878v-.005zm7.015 8.295c0 1.586-1.859 2.866-4.147 2.866-2.287 0-4.147-1.28-4.147-2.866 0-1.587 1.86-2.874 4.147-2.874 2.289 0 4.147 1.284 4.147 2.878v-.004zm6.377 9.564c0 1.586-1.859 2.866-4.147 2.866-2.287 0-4.147-1.28-4.147-2.866 0-1.587 1.86-2.874 4.147-2.874 2.289 0 4.147 1.284 4.147 2.878v-.004zm7.008 8.93c0 1.586-1.859 2.866-4.147 2.866-2.287 0-4.147-1.28-4.147-2.866 0-1.587 1.86-2.874 4.147-2.874 2.289 0 4.147 1.284 4.147 2.878v-.004zm9.578 7.646c0 1.586-1.859 2.866-4.147 2.866-2.287 0-4.147-1.28-4.147-2.866 0-1.587 1.86-2.874 4.147-2.874 2.289 0 4.147 1.283 4.147 2.878v-.004zm13.388 5.107c0 1.586-1.859 2.866-4.147 2.866-2.287 0-4.147-1.28-4.147-2.866 0-1.588 1.86-2.873 4.147-2.873 2.289 0 4.147 1.283 4.147 2.877v-.004zm13.333 0c0 1.586-1.859 2.866-4.147 2.866-2.287 0-4.147-1.28-4.147-2.866 0-1.588 1.86-2.873 4.147-2.873 2.289 0 4.147 1.283 4.147 2.877v-.004zm13.523-2.216c0 1.586-1.859 2.866-4.147 2.866-2.287 0-4.147-1.28-4.147-2.866 0-1.587 1.86-2.874 4.147-2.874 2.289 0 4.147 1.284 4.147 2.878v-.004z"/><g fill="#333"><path d="M208.734 201.477c0 12.601-7.106 22.813-15.852 22.813s-15.851-10.212-15.851-22.813c0-12.605 7.099-22.823 15.851-22.823 8.74 0 15.846 10.213 15.846 22.817l.006.006zm127.554 0c0 12.601-7.105 22.813-15.852 22.813s-15.851-10.212-15.851-22.813c0-12.605 7.099-22.823 15.851-22.823 8.74 0 15.846 10.213 15.846 22.817l.006.006z"/><circle cx="254.719" cy="231.44" r="5.945"/><path d="M240.845 246.476a1.913 1.913 0 0 1 1.163-2.438 1.913 1.913 0 0 1 2.438 1.163c1.532 4.32 5.629 7.222 10.201 7.222s8.669-2.9 10.201-7.222a1.907 1.907 0 0 1 2.438-1.163 1.91 1.91 0 0 1 1.164 2.438 14.672 14.672 0 0 1-13.804 9.766 14.638 14.638 0 0 1-13.793-9.754l-.008-.012z"/></g><path opacity=".5" fill="#333" d="M93.782 282.181l-4.142 14.432s-1.081 5.216 3.836 6.142c5.134-.1 4.709-4.9 4.354-6.459l-4.048-14.115z"/></svg>