<svg xmlns="http://www.w3.org/2000/svg" width="298" height="420"><path d="M27 386L0 82h298l-27 304-122 34z" fill="#63a814"/><path d="M149 393.84l98.48-27.3L270.68 107H149z" fill="#8acf17"/><path d="M55.476 145l3.33 37h142.38L190.5 305.86l-41.64 11.228-41.548-11.203L104.655 276h-37.45l5.227 58.664 76.392 21.26 76.55-21.26L242.348 145z" fill="#fff"/><path d="M148.86 317.088l-41.548-11.203L104.655 276h-37.45l5.227 58.664L149 355.924zM58.805 182H149v-37H55.476z" fill="#ebebeb"/><path d="M122.07 0v36h-31v20h52V0zm31 0v20.847L175.972 38H153.07v18h53V37.876L180.407 18h25.663V0z"/></svg>