<svg width="400" height="400" xmlns="http://www.w3.org/2000/svg"><g fill="#336791" fill-rule="evenodd"><path d="M198.094 313.384c5.78 4.78 12.558 6.82 19.874 7.197 3.026.158 6.138.01 9.116-.533 4.722-.858 9.432-1.935 14.026-3.319 9.355-2.823 17.438-7.7 23.474-15.577 3.439-4.49 6.261-9.346 8.074-14.713 1.497-4.43 2.903-8.904 4.023-13.436.884-3.57 1.322-7.258 1.858-10.906.358-2.413.574-4.852.796-7.287.362-3.952.74-7.897 1-11.858.184-2.755.178-5.523.284-8.281.036-.842.171-1.677.252-2.513.068-.777.461-1.045 1.255-1.032 2.787.042 5.58.113 8.364-.013 3.12-.139 6.262-.274 9.333-.787a149.574 149.574 0 0 0 12.993-2.774c5.058-1.326 9.7-3.697 14.171-6.394 5.2-3.145 9.948-6.832 13.79-11.584 3.352-4.135 4.94-8.929 4.13-14.158-1.175-7.597-7.559-12.574-14.981-12.913-2.69-.122-5.42.162-8.097.5-3.242.413-6.435 1.142-9.668 1.623-2.232.335-4.493.484-6.72.716l-.06-.29c4.16-7.862 8.496-15.633 12.432-23.6 3.022-6.117 5.603-12.449 8.27-18.74 4.42-10.412 7.946-21.144 10.869-32.057 2.796-10.445 5.19-21.003 5.948-31.842.303-4.326.513-8.671.484-13.003-.02-3.458-.394-6.92-.739-10.365-.393-3.948-1.587-7.69-3.239-11.29-2.174-4.749-5.551-8.642-9.103-12.339-2.842-2.961-5.97-5.658-9.07-8.355-4.423-3.845-9.398-6.92-14.559-9.645-5.868-3.097-12.032-5.522-18.464-7.161-3.89-.99-7.865-1.865-11.8-2.649C275.003 3.723 273.584 3 272.168 3h-26.671c-.965 0-1.92.632-2.89.739-6.384.713-12.694 1.984-18.823 3.887-2.29.706-4.38.293-6.558.09-1.671-.155-3.313-.584-4.984-.668-6.358-.316-12.723-.774-19.084-.706-6.09.064-12.12 1.07-18.013 2.742-4.932 1.406-9.761 3.113-14.187 5.71-1.89 1.11-3.393.9-5.352.338-6.583-1.9-13.21-3.68-19.89-5.174-4.164-.932-8.451-1.403-12.706-1.842a148.772 148.772 0 0 0-12.287-.764c-4.007-.087-8.04-.084-12.03.27-6.351.565-12.58 1.855-18.638 3.94-6.726 2.315-12.894 5.667-18.452 10.067-5.645 4.468-10.174 9.916-13.81 16.145-3.835 6.571-6.47 13.607-8.103 20.99-.887 4.004-.561 8.12-1.17 12.184-.188 1.258.19 2.523.19 3.787V92.43c0 1.174-.345 2.352-.197 3.532.364 2.836.239 5.694.72 8.51.754 4.458 1.435 8.9 2.35 13.326 1.282 6.184 2.504 12.361 3.923 18.516a311.44 311.44 0 0 0 3.381 13.364c1.871 6.768 3.697 13.546 5.816 20.233 1.971 6.216 4.216 12.342 6.458 18.47 3.104 8.478 6.807 16.681 11.258 24.54 3.855 6.809 8.252 13.186 14.155 18.428 3.894 3.458 8.22 6.113 13.255 7.442a26.226 26.226 0 0 0 12.042.336c4.7-.961 8.864-2.987 12.564-6.016.426-.345.888-.613 1.394.025 1.916 2.426 4.477 4.046 7.158 5.442 7.232 3.775 15.113 4.907 23.116 5.365 1.942.11 3.897-.168 5.849-.22 3.81-.106 7.506-.848 11.142-1.9 1.91-.551 3.77-1.254 5.712-1.906.1 2.068.23 4.055.294 6.045l.268 10.849c.051 1.651.116 3.303.267 4.948.394 4.239.778 8.477 1.284 12.703.349 2.913.716 5.845 1.4 8.69a99.747 99.747 0 0 0 5.62 16.736c2.326 5.31 5.677 9.797 10.155 13.497zm-11.584-54.09c-.23-5.094-.4-10.19-.513-15.288-.136-6.264-.18-12.532-.268-18.796l-.016-.239c-3.184 1.913-6.323 4.003-9.642 5.729-3.894 2.023-8.12 3.194-12.497 3.526-3.429.258-6.91.493-10.322.222-5.6-.454-11.2-1.329-16.213-4.09-2.033-1.12-4.155-2.484-5.558-4.268-3.358-4.287-1.749-9.703 3.316-12.31 3.5-1.806 7.32-2.557 11.113-3.435 3.293-.761 6.577-1.629 9.793-2.677 3.18-1.042 5.187-3.623 7.171-6.155l3.142-4.039-3.777-.393c-3.749-.349-7.326-1.384-10.745-2.9-2.923-1.294-2.968-1.436-5.117.893-3.58 3.887-7.064 7.871-10.577 11.826-2.584 2.91-5.148 5.835-7.726 8.755-2.542 2.887-4.929 5.935-7.674 8.62-4.071 3.986-8.98 6.383-14.839 6.112-3.758-.174-7.196-1.49-10.293-3.642-6.384-4.445-10.684-10.67-14.603-17.203-5.017-8.374-8.871-17.294-12.165-26.455-2.28-6.335-4.574-12.674-6.561-19.1-2.165-6.984-4.065-14.048-5.933-21.12-1.412-5.332-2.664-10.709-3.858-16.096-1.358-6.126-2.66-12.268-3.813-18.436-.777-4.164-1.225-8.39-1.854-12.58-.849-5.655-1.004-11.355-.694-17.03.274-5.112 1.007-10.209 1.736-15.286 1.01-7.026 3.325-13.655 6.654-19.916 2.042-3.836 4.568-7.323 7.494-10.562 4.806-5.32 10.623-9.161 17.094-12.048 4.519-2.016 9.296-3.226 14.164-4.178 7.226-1.406 14.516-1.348 21.806-1.2 3.188.068 6.365.646 9.549.965 6.858.68 13.577 2.126 20.213 3.903 4.838 1.297 9.577 2.98 14.37 4.439.478.145 1.185.132 1.581-.123 6.5-4.245 13.6-7.045 21.158-8.648 2.868-.606 5.83-.874 8.762-1.061 3.561-.223 7.158-.436 10.713-.226 4.274.245 8.535.874 12.784 1.455 2.064.284 4.077.996 6.141 1.19.994.094 2.042-.626 3.088-.87 5.335-1.236 10.648-2.607 16.032-3.578 4.006-.723 8.103-1.065 12.174-1.297 4.548-.261 9.123-.452 13.665-.232a95.563 95.563 0 0 1 17.067 2.403c6.974 1.622 13.658 3.977 20.016 7.248 4.752 2.449 9.265 5.28 13.333 8.765 2.664 2.287 5.393 4.542 7.796 7.09 2.968 3.142 5.994 6.28 7.858 10.303 1.404 3.036 2.404 6.178 2.681 9.497.342 4.132.758 8.277.723 12.416-.036 3.955-.578 7.907-.958 11.855-.875 8.994-2.826 17.794-5.204 26.477-1.958 7.171-4.254 14.265-6.738 21.278-2.287 6.461-4.93 12.803-7.597 19.122a210.733 210.733 0 0 1-6.4 13.81c-4.368 8.555-8.91 17.023-14.165 25.087-.906 1.39-1.767 2.816-2.651 4.239 2.293 1.545 4.89 2.09 7.503 2.374 2.487.268 5.023.432 7.506.245 3.978-.296 7.942-.864 11.897-1.416 3.916-.548 7.752-1.661 11.778-1.368 4.013.294 6.89 3.346 6.616 7.107-.174 2.38-1.268 4.422-2.849 6.168-7.467 8.238-16.842 13.232-27.564 15.693-4.074.936-8.274 1.416-12.445 1.807-3.552.329-7.149.383-10.713.251-2.62-.097-5.216-.697-7.894-1.084-.27 2.449-.526 5-.835 7.542l-1.249 9.752c-.377 3.09-.67 6.193-1.06 9.284-.382 3-.856 5.984-1.256 8.98-.37 2.79-.645 5.597-1.064 8.384-.636 4.271-1.245 8.552-2.08 12.79-1 5.065-2.53 9.968-5.036 14.54-3.052 5.577-7.378 9.825-12.887 12.97-5.678 3.242-11.888 4.93-18.175 6.342-4.458 1.003-9.042 1.165-13.554.755-7.823-.706-14.5-4.052-19.549-10.12-4.816-5.79-8.077-12.422-9.242-19.935-.561-3.57-.961-7.17-1.277-10.77-.362-4.01-.6-8.023-.787-12.04zm8.793-51.465c.049 2.677-.229 5.355-.216 8.032.055 12.462.145 24.926.252 37.39.02 2.036.12 4.078.264 6.11.307 4.258.61 8.52 1.023 12.765.297 3.016.7 6.022 1.174 9.016.677 4.235 2.606 8.01 4.794 11.62 1.883 3.103 4.338 5.735 7.567 7.554 5.49 3.087 11.397 3.345 17.352 2.21 4.022-.765 7.977-2 11.88-3.274 3.852-1.255 7.333-3.304 10.252-6.133 2.739-2.651 4.68-5.887 5.99-9.458 2.54-6.922 3.336-14.216 4.384-21.448.394-2.71.736-5.426 1.094-8.139.41-3.087.822-6.17 1.216-9.258.297-2.303.561-4.603.842-6.903.403-3.303.826-6.603 1.21-9.907.293-2.554.538-5.119.803-7.68.335-3.274.693-6.539.987-9.82.22-2.483.129-5.016.57-7.458.81-4.474 2.927-8.28 6.894-10.745 1.659-1.026 3.536-1.703 5.375-2.574l-.316-.48c-1.7-2.207-3.442-4.378-5.11-6.61-2.62-3.504-4.503-7.41-6.397-11.336-1.793-3.722-3.987-7.245-5.874-10.926-3.294-6.419-6.648-12.822-9.684-19.36-3.816-8.227-6.823-16.736-7.768-25.846-.403-3.852-.506-7.703.278-11.52 1.248-6.096 4.429-10.864 9.784-14.135 4.967-3.032 10.5-4.013 16.167-4.32 3.516-.19 7.055-.035 10.704-.035l-.12-.616c-2.27-4.748-4.39-9.577-6.877-14.21-3.503-6.541-7.994-12.438-12.987-17.912-3.697-4.049-7.707-7.804-12.097-11.13-4.316-3.267-8.865-6.187-13.72-8.57-5.787-2.849-11.819-5.049-18.141-6.452-6.081-1.348-12.194-2.174-18.433-2.242-5.316-.058-10.6.187-15.78 1.384-7.82 1.81-14.971 5.029-21.187 10.242a54.891 54.891 0 0 0-9.158 9.82c-3.12 4.273-5.63 8.9-7.778 13.741-2.948 6.649-4.97 13.561-6.358 20.671-.69 3.548-1.232 7.12-1.784 10.69-.193 1.255-.206 2.53-.322 3.965l2.36-1.23 2.304-1.031c7.797-3.565 15.871-5.858 24.549-5.597 3.69.11 7.212.842 10.496 2.458 6.29 3.103 9.968 8.377 11.568 15.048 1.103 4.607 1.861 9.304 2.597 13.99.574 3.659 1.164 7.355 1.229 11.046.093 5.393-.178 10.8-.471 16.19a45.152 45.152 0 0 1-2.813 13.4c-2.916 7.794-6.168 15.461-9.203 23.21-1.003 2.561-1.774 5.21-2.72 8.026l3.833.003c.464.01.938.022 1.387.129 3.487.822 6.516 2.403 8.997 5.087 3.316 3.561 5.051 7.729 5.138 12.558zM128.7 170.877c-1.98-4.69-3.171-9.583-3.529-14.638-.336-4.755.229-9.484.72-14.22.47-4.584.87-9.19 1.006-13.79.229-7.57-.28-15.123-.642-22.687-.216-4.503.306-9.061.706-13.574.362-4.065.813-8.139 1.584-12.145 1.287-6.723 3-13.349 5.436-19.771 2.306-6.09 4.964-12.017 8.706-17.355 2.571-3.665 5.48-7.08 8.278-10.662l-.833-.296c-9.106-2.89-18.364-5.155-27.89-6.139-4.5-.468-9.02-.739-13.532-1.01-1.387-.08-2.794.107-4.184.239-3.442.332-6.93.461-10.316 1.106-5.765 1.097-11.297 2.942-16.416 5.946-4.6 2.696-8.462 6.177-11.697 10.358-3.571 4.616-5.98 9.835-7.707 15.396-2.038 6.565-3.013 13.323-3.274 20.14-.229 5.977-.342 11.986.69 17.941.765 4.43 1.278 8.91 2.123 13.326 1.155 6.016 2.394 12.023 3.826 17.977 2.042 8.53 4.087 17.065 6.51 25.49 2.316 8.068 4.925 16.065 7.764 23.968 2.316 6.449 4.997 12.778 7.82 19.02 1.838 4.068 4.064 7.984 6.4 11.79 2.48 4.045 5.306 7.884 9.132 10.82 4.835 3.703 8.574 4.28 13.49.212 2.103-1.738 3.88-3.893 5.713-5.942 2.906-3.251 5.713-6.6 8.61-9.867 3.687-4.158 7.419-8.275 11.125-12.42.784-.874 1.542-1.777 2.304-2.661l-1.268-1.106c-4.597-4.426-8.165-9.555-10.655-15.446zm139.81-123.88c3.013 3.532 5.929 7.168 8.619 10.948a98.833 98.833 0 0 1 12.436 23.665c1.354 3.725 2.438 7.487 1.954 11.561-.335 2.855-.313 5.748-.56 8.62-.21 2.386-.591 4.76-.898 7.141-.464 3.587-1.135 7.168-1.335 10.771-.194 3.432.01 6.897.226 10.332.216 3.494.687 6.971 1.006 10.455.361 3.958.852 7.907.961 11.871.09 3.252-.2 6.52-.48 9.771-.339 3.913-1.33 7.7-2.807 11.33-1.042 2.56-2.284 5.038-3.455 7.6l.471.496.717.555.725-1.29c6.09-9.604 11.51-19.575 16.197-29.926 3.026-6.665 5.845-13.426 8.561-20.226 4.23-10.584 7.581-21.461 10.165-32.561 1.161-4.981 2.052-10.039 2.839-15.097.616-3.955 1.125-7.955 1.242-11.945.119-4.233-.113-8.497-.504-12.716-.293-3.187-1.08-6.394-3.074-8.99-3.213-4.172-6.677-8.159-10.939-11.317-3.59-2.655-7.17-5.387-11.019-7.62-6.106-3.544-12.716-5.9-19.623-7.506-6.745-1.57-13.57-2.248-20.441-2.393-4.052-.087-8.123.348-12.165.732-3.664.342-7.306.93-10.994 1.413 3.959 2.226 7.865 4.206 11.542 6.539 7.742 4.903 14.684 10.803 20.633 17.787zm-100.581 137.3c2.5-8 5.91-15.645 9.21-23.33 2.68-6.235 4.142-12.8 4.629-19.548.242-3.325.177-6.693.013-10.029-.184-3.703-.478-7.422-1.02-11.09-.693-4.69-1.48-9.384-2.59-13.987-1.203-4.98-4.236-8.452-9.436-9.732-3.164-.778-6.312-.746-9.516-.24-7.816 1.23-14.97 4.11-21.635 8.33-1.342.848-2.084 1.535-1.849 3.455.49 4.077.597 8.22.578 12.332-.026 5.823-.274 11.645-.494 17.465-.07 1.893-.345 3.783-.551 5.67-.31 2.89-.913 5.778-.894 8.665.02 2.974.323 6.016 1.045 8.897 2.294 9.135 7.146 16.606 15.104 21.88 4.893 3.246 10.306 4.878 16.251 5.19.394-1.364.758-2.65 1.155-3.928zm-9.342-78.352c-1.048-2.197-.448-4.02 1.978-4.864.593-.204 1.2-.43 1.812-.487.849-.084 1.704-.023 2.558-.023 3.081.02 6.042.448 8.581 2.403 1.632 1.258 2.071 2.92 1.013 4.636-1.5 2.429-3.78 3.648-6.587 3.88-4.416.365-7.516-1.693-9.355-5.545zm122.5-.803l1.003-8.79c.145-1.175-.47-1.497-1.458-1.526-3.106-.084-6.21-.197-9.316-.249-3.497-.064-6.906.497-10.145 1.826-3.594 1.48-6.33 3.849-7.448 7.762-.836 2.916-1.058 5.829-.762 8.877a52.55 52.55 0 0 0 3.107 13.484c2.174 5.784 4.445 11.564 7.164 17.106 3.68 7.5 7.842 14.765 11.752 22.152 1.042 1.97 1.926 4.032 3.013 6.332 2.28-4.826 3.39-9.658 3.516-14.639.106-4.196-.226-8.403-.471-12.6-.152-2.567-.516-5.122-.765-7.683-.345-3.568-.874-7.14-.958-10.717-.08-3.638.178-7.296.487-10.932.29-3.477.865-6.932 1.281-10.403zm-6.997-2.82c-1.155 3.184-3.619 4.984-6.819 5.51-2.98.494-5.594-.606-7.536-2.987-1.383-1.693-.854-3.697 1.22-4.845 2.38-1.316 4.997-1.648 8.084-1.848.842.151 2.1.283 3.3.622 1.738.49 2.384 1.807 1.751 3.549zm-92.251 98.075c-1.704-1.394-3.962-1.474-5.58.055-2.014 1.903-3.785 4.077-5.556 6.219-2.042 2.477-3.964 5.052-6.597 6.97-3.835 2.791-8.316 3.946-12.812 5.04-3.575.87-7.168 1.68-10.752 2.513l-.045.464c1.064.49 2.093 1.107 3.206 1.458 5.468 1.73 11.032 2.594 16.813 2.103 4.168-.358 8.142-1.267 11.907-3.051 5.183-2.455 9.174-6.349 12.564-10.871.568-.755.826-1.871.89-2.845.23-3.44-1.516-5.997-4.038-8.055zm99.822-1.49c-2.68.9-4.861 2.27-5.51 5.17-.441 1.962-.603 3.99-.774 6-.032.355.41 1.007.746 1.097 2.064.545 4.142 1.187 6.251 1.378 2.597.235 5.236.16 7.849.032 2.819-.142 5.658-.326 8.438-.79 6.545-1.104 12.884-2.89 18.51-6.607 2.032-1.339 4.039-2.706 6.058-4.068l-.168-.287c-2.151.32-4.296.71-6.458.939-4.4.47-8.803.968-13.22 1.223-2.131.122-4.293-.288-6.441-.462-3.607-.293-7.13-1.093-10.177-3.022-1.759-1.11-3.23-1.233-5.104-.604z"/><path d="M2.694 322.948c3.525-.587 8.135-1.09 14.01-1.09 7.209 0 12.496 1.677 15.85 4.697 3.104 2.684 4.95 6.793 4.95 11.829 0 5.116-1.514 9.142-4.365 12.077-3.858 4.11-10.149 6.207-17.278 6.207-2.18 0-4.193-.084-5.867-.503v22.648h-7.3v-55.865zm7.3 27.258c1.593.42 3.606.588 6.038.588 8.803 0 14.174-4.278 14.174-12.078 0-7.464-5.283-11.07-13.335-11.07-3.187 0-5.62.25-6.877.586v21.974zm71.71 7.968c0 15.013-10.404 21.558-20.217 21.558-10.987 0-19.458-8.051-19.458-20.887 0-13.587 8.89-21.555 20.13-21.555 11.66-.003 19.544 8.471 19.544 20.884zm-32.207.42c0 8.89 5.116 15.6 12.329 15.6 7.045 0 12.326-6.626 12.326-15.768 0-6.878-3.436-15.6-12.162-15.6-8.725 0-12.493 8.051-12.493 15.768zm40.506 12.664c2.18 1.426 6.039 2.936 9.73 2.936 5.367 0 7.883-2.684 7.883-6.04 0-3.522-2.093-5.45-7.548-7.464-7.297-2.6-10.736-6.625-10.736-11.49 0-6.542 5.284-11.91 14.007-11.91 4.11 0 7.72 1.175 9.984 2.516l-1.846 5.368c-1.593-1.006-4.529-2.348-8.303-2.348-4.361 0-6.793 2.516-6.793 5.535 0 3.355 2.435 4.865 7.719 6.878 7.045 2.684 10.652 6.206 10.652 12.245 0 7.129-5.536 12.161-15.181 12.161-4.445 0-8.555-1.09-11.406-2.768l1.838-5.619zm43.113-44.706v11.658h10.565v5.619h-10.565v21.89c0 5.033 1.423 7.884 5.536 7.884 1.929 0 3.354-.251 4.277-.503l.336 5.535c-1.423.588-3.69 1.007-6.54 1.007-3.438 0-6.209-1.09-7.97-3.103-2.094-2.18-2.852-5.787-2.852-10.568v-22.142h-6.29v-5.62h6.29v-9.728l7.213-1.93zm53.342 11.66a176.185 176.185 0 0 0-.335 11.156v23.567c0 9.31-1.846 15.013-5.788 18.54-3.941 3.69-9.645 4.864-14.76 4.864-4.865 0-10.233-1.174-13.507-3.355l1.845-5.62c2.684 1.678 6.877 3.188 11.91 3.188 7.548 0 13.083-3.942 13.083-14.175v-4.529h-.167c-2.265 3.775-6.626 6.794-12.916 6.794-10.065 0-17.278-8.555-17.278-19.797 0-13.755 8.974-21.555 18.284-21.555 7.048 0 10.906 3.69 12.668 7.045h.168l.335-6.122h6.458zm-7.632 16.02c0-1.258-.084-2.348-.42-3.355-1.341-4.277-4.948-7.8-10.316-7.8-7.048 0-12.077 5.955-12.077 15.349 0 7.968 4.026 14.593 11.993 14.593 4.53 0 8.64-2.851 10.233-7.548.42-1.258.59-2.684.59-3.942v-7.297h-.003zm19.035-3.355c0-4.78-.084-8.89-.335-12.664h6.461l.248 7.968h.336c1.845-5.452 6.29-8.89 11.239-8.89.838 0 1.422.083 2.093.25v6.962c-.751-.168-1.51-.251-2.513-.251-5.2 0-8.893 3.942-9.896 9.477-.168 1.006-.336 2.18-.336 3.439v21.638h-7.297v-27.929zm30.7 8.975c.168 9.98 6.539 14.09 13.92 14.09 5.287 0 8.47-.923 11.238-2.097l1.258 5.284c-2.6 1.174-7.045 2.516-13.503 2.516-12.497 0-19.961-8.22-19.961-20.464 0-12.246 7.213-21.894 19.039-21.894 13.251 0 16.774 11.658 16.774 19.123 0 1.51-.168 2.684-.252 3.438h-28.513v.004zm21.639-5.284c.08-4.697-1.932-11.994-10.232-11.994-7.465 0-10.736 6.878-11.326 11.994H250.2zm15.513 15.348c3.27 2.013 8.052 3.69 13.084 3.69 7.464 0 11.826-3.941 11.826-9.645 0-5.284-3.02-8.303-10.652-11.238-9.226-3.271-14.93-8.052-14.93-16.02 0-8.806 7.298-15.348 18.285-15.348 5.787 0 9.98 1.342 12.497 2.768l-2.013 5.954c-1.845-1.006-5.62-2.683-10.736-2.683-7.716 0-10.651 4.612-10.651 8.47 0 5.284 3.435 7.884 11.238 10.904 9.562 3.693 14.426 8.303 14.426 16.606 0 8.723-6.458 16.271-19.793 16.271-5.452 0-11.407-1.593-14.43-3.606l1.849-6.123zM354.7 387.11c-7.632-2.013-15.097-4.278-21.639-6.542-1.174-.42-2.348-.839-3.438-.839-13.42-.503-24.91-10.4-24.91-28.6 0-18.116 11.07-29.774 26.335-29.774 15.349 0 25.333 11.91 25.333 28.6 0 14.51-6.71 23.82-16.104 27.09v.336c5.62 1.425 11.742 2.767 16.523 3.606l-2.1 6.123zm-6.039-36.82c0-11.322-5.867-22.984-17.864-22.984-12.33 0-18.368 11.407-18.284 23.655-.084 11.994 6.542 22.813 17.948 22.813 11.662 0 18.2-10.568 18.2-23.484zm17.19-28.013h7.3v50.407h24.155v6.122h-31.454v-56.529z" fill-rule="nonzero"/></g></svg>