<svg xmlns="http://www.w3.org/2000/svg" width="172.662" height="174.569"><g fill="#EF3C36"><path d="M85.304.001c-7.12.034-13.919.64-19.902 1.699-17.624 3.114-20.823 9.63-20.823 21.648v15.874h41.647v5.291H28.949c-12.104 0-22.702 7.275-26.017 21.114-3.824 15.863-3.995 25.764 0 42.328 2.961 12.328 10.03 21.113 22.134 21.113h14.319v-19.029c0-13.744 11.893-25.871 26.016-25.871H107c11.579 0 20.822-9.533 20.822-21.163V23.348c0-11.284-9.521-19.765-20.822-21.648C99.846.509 92.422-.032 85.304.001zM62.781 12.767c4.301 0 7.815 3.571 7.815 7.96 0 4.375-3.514 7.913-7.815 7.913-4.318 0-7.815-3.538-7.815-7.913 0-4.39 3.497-7.96 7.815-7.96z"/><path d="M133.016 44.512v18.493c0 14.339-12.154 26.405-26.015 26.405h-41.6c-11.394 0-20.823 9.753-20.823 21.164v39.657c0 11.285 9.814 17.926 20.823 21.162 13.184 3.876 25.824 4.579 41.599 0 10.484-3.033 20.822-9.145 20.822-21.162v-15.873H86.226v-5.29h62.42c12.104 0 16.615-8.442 20.823-21.113 4.348-13.048 4.164-25.594 0-42.328-2.99-12.048-8.704-21.114-20.823-21.114l-15.63-.001zM109.622 144.94c4.317 0 7.815 3.535 7.815 7.909 0 4.39-3.498 7.962-7.815 7.962-4.301 0-7.814-3.572-7.814-7.962-.001-4.374 3.512-7.909 7.814-7.909z"/></g></svg>