<?xml version="1.0" encoding="utf-8"?>
<!-- Generator: Adobe Illustrator 16.0.2, SVG Export Plug-In . SVG Version: 6.00 Build 0)  -->
<!DOCTYPE svg PUBLIC "-//W3C//DTD SVG 1.1//EN" "http://www.w3.org/Graphics/SVG/1.1/DTD/svg11.dtd">
<svg version="1.1" id="Layer_1" xmlns="http://www.w3.org/2000/svg" xmlns:xlink="http://www.w3.org/1999/xlink" x="0px" y="0px"
	 width="160px" height="160px" viewBox="0 0 160 160" enable-background="new 0 0 160 160" xml:space="preserve">
<g>
	<path fill-rule="evenodd" clip-rule="evenodd" fill="#E6567A" d="M13.883,81.935c0.881-2.762,1.937-8.405,4.389-13.355
		C30.196,44.515,48.648,27.01,73.279,16.377c4.755-2.051,10.414-2.705,15.664-2.731c6.563-0.034,10.956,4.532,11.531,11.159
		c0.3,3.449,0.261,7.279-0.925,10.451C87.875,66.47,65.858,87.372,34.891,99.119c-1.205,0.457-2.553,0.575-3.849,0.753
		C20.502,101.315,13.724,95.342,13.883,81.935z"/>
	<path fill-rule="evenodd" clip-rule="evenodd" fill="#E6567A" d="M94.747,58.818c17.332-1.214,34.154-2.393,50.976-3.572
		c0.331-0.445,0.661-0.889,0.992-1.333c-0.744-0.251-1.634-0.321-2.211-0.781c-15.585-12.426-31.166-24.86-46.656-37.404
		c-1.594-1.291-2.621-3.281-3.911-4.948c0.179-0.364,0.356-0.727,0.534-1.09c5.979,0,11.956-0.027,17.935,0.007
		c5.374,0.031,10.851-0.514,16.103,0.323c13.804,2.199,21.694,11.263,21.421,25.311c-0.252,12.958-1.611,25.897-2.571,38.837
		c-1.434,19.353-2.94,38.699-4.427,58.047c-0.268,3.491-0.587,6.977-0.935,11.078c-7.173-6.4-13.984-12.472-20.787-18.554
		c-0.781-0.697-1.42-1.599-2.288-2.15c-8.564-5.438-12.031-13.6-13.997-23.274C102.19,85.862,98.283,72.649,94.747,58.818z"/>
	<path fill-rule="evenodd" clip-rule="evenodd" fill="#E6567A" d="M30.781,133.807c3.633-0.507,7.185-0.73,10.566-1.612
		c1.244-0.325,2.598-2.041,3.024-3.398c3.06-9.751,5.891-19.573,8.805-29.371c0.221-0.743,0.529-1.46,0.989-2.718
		c17.748,5.679,35.418,11.333,53.699,17.184c-9.402,9.676-19.631,17.533-30.679,24.819c20.023,1.52,40.047,3.04,60.071,4.559
		c0.013,0.259,0.023,0.517,0.034,0.774c-5.194,0.359-10.389,0.727-15.584,1.078c-26.304,1.78-52.599,3.713-78.918,5.211
		c-5.931,0.338-12.159-0.031-17.88-1.507c-10.395-2.683-16.522-12.344-16.495-25.417c0.02-9.56,0.893-19.118,1.503-28.67
		c0.049-0.769,1.009-1.479,1.546-2.217c0.894,0.726,2.214,1.266,2.617,2.203c5.027,11.65,9.917,23.359,14.853,35.049
		C29.485,131.077,30.113,132.351,30.781,133.807z"/>
</g>
</svg>
